<?xml version="1.0" standalone="no"?>
<!DOCTYPE svg PUBLIC "-//W3C//DTD SVG 20010904//EN"
 "http://www.w3.org/TR/2001/REC-SVG-20010904/DTD/svg10.dtd">
<svg version="1.0" xmlns="http://www.w3.org/2000/svg"
 width="475.000000pt" height="475.000000pt" viewBox="0 0 475.000000 475.000000"
 preserveAspectRatio="xMidYMid meet">
<metadata>
Created by potrace 1.11, written by Peter Selinger 2001-2013
</metadata>
<g transform="translate(0.000000,475.000000) scale(0.100000,-0.100000)"
fill="#000000" stroke="none">
<path d="M3764 4611 c-7 -7 -4 -34 7 -74 14 -51 73 -115 128 -140 103 -46 239
-7 294 85 30 48 49 110 38 125 -6 8 -458 12 -467 4z"/>
<path d="M3848 4338 c-74 -15 -104 -109 -52 -162 15 -14 34 -27 43 -27 42 -4
289 2 312 7 58 11 90 80 63 135 -25 51 -37 54 -190 54 -79 0 -158 -3 -176 -7z"/>
<path d="M3858 4112 c-33 -4 -75 -42 -84 -76 -8 -34 12 -83 43 -103 32 -21
307 -20 359 2 57 24 73 102 29 149 -13 14 -30 27 -37 28 -21 3 -281 3 -310 0z"/>
<path d="M3829 3875 c-54 -30 -61 -110 -15 -154 27 -25 59 -29 238 -33 l130
-2 29 32 c16 18 29 44 29 58 0 33 -25 81 -49 93 -10 6 -90 13 -177 16 -128 4
-164 2 -185 -10z"/>
<path d="M2398 3852 c-9 -2 -18 -13 -20 -25 -4 -31 -54 -37 -63 -7 -10 32 -60
24 -60 -10 0 -34 -49 -53 -68 -26 -21 29 -59 12 -55 -25 2 -19 -4 -33 -17 -42
-17 -13 -22 -12 -45 5 -29 21 -79 17 -81 -8 -1 -8 -3 -23 -4 -34 -1 -11 -3
-24 -4 -30 -2 -19 -26 -10 -51 21 -24 28 -28 30 -54 18 -28 -13 -30 -30 -11
-80 10 -27 -24 -31 -57 -8 l-30 22 -21 -22 c-21 -21 -22 -22 -4 -52 29 -51 23
-63 -24 -55 -67 11 -96 -36 -44 -70 14 -9 25 -25 25 -35 0 -14 -9 -19 -42 -21
-40 -3 -43 -5 -46 -35 -3 -28 1 -32 32 -43 47 -15 48 -44 4 -56 -27 -8 -34
-15 -36 -42 -2 -18 2 -33 7 -33 6 -1 26 -2 44 -3 25 -1 33 -6 35 -22 3 -24
-10 -32 -53 -30 -23 1 -30 6 -30 21 0 13 -7 20 -20 20 -11 0 -23 8 -27 17 -12
29 -66 56 -101 51 -59 -9 -88 -53 -88 -135 0 -25 -5 -38 -14 -38 -7 0 -16 -7
-19 -16 -9 -22 -8 -24 9 -24 20 0 19 -27 0 -38 -19 -10 -9 -43 10 -36 10 4 13
-8 13 -45 1 -59 29 -107 68 -117 29 -8 30 -12 2 -35 -15 -14 -24 -16 -34 -8
-16 13 -37 2 -30 -17 5 -13 1 -16 -34 -18 -8 -1 -16 -10 -16 -21 -1 -11 -2
-26 -3 -32 -1 -7 -8 -13 -16 -13 -18 0 -19 -13 -2 -41 10 -17 10 -23 0 -26 -7
-3 -13 -14 -13 -25 0 -13 5 -18 14 -15 18 7 27 -14 19 -43 -5 -17 -2 -21 13
-19 25 5 44 -8 38 -25 -7 -20 24 -28 34 -9 8 13 12 12 31 -8 21 -23 23 -23 35
-6 14 18 46 24 46 7 0 -5 7 -7 16 -3 8 3 13 11 10 18 -6 17 13 35 31 28 17 -7
37 18 22 28 -14 8 0 39 16 33 7 -3 15 2 19 11 3 9 0 18 -9 21 -19 8 -19 33 -1
40 18 7 9 34 -10 34 -8 0 -14 6 -15 13 -1 6 -2 21 -3 32 -1 14 -7 19 -22 17
-13 -2 -24 4 -28 13 -4 10 -2 14 5 9 6 -4 15 -1 19 5 5 9 12 8 25 -5 17 -17
18 -17 31 1 11 15 16 16 29 5 14 -11 17 -10 22 8 3 13 13 22 25 22 15 0 19 5
15 20 -3 14 1 24 15 31 16 8 17 13 7 25 -9 11 -9 18 -1 26 16 16 15 28 -3 28
-14 0 -19 11 -16 38 1 6 -6 12 -15 12 -11 0 -15 6 -11 20 3 13 0 20 -9 20 -19
0 -18 36 2 44 8 3 13 10 10 15 -9 13 36 22 51 9 10 -8 9 -16 -8 -39 -39 -56
-5 -96 55 -64 46 25 61 13 45 -34 -11 -31 -10 -35 12 -52 24 -19 24 -19 51 11
15 17 32 30 37 30 10 0 20 -23 28 -60 2 -13 6 -26 8 -29 2 -2 -12 -12 -32 -22
-25 -13 -39 -15 -44 -8 -4 7 -11 5 -22 -5 -19 -19 -34 -20 -40 -3 -4 7 -8 3
-12 -10 -4 -13 -15 -23 -24 -23 -25 0 -33 -11 -19 -27 9 -11 7 -15 -10 -20
-25 -6 -27 -14 -9 -32 10 -10 6 -18 -19 -39 -31 -26 -31 -28 -16 -59 12 -26
13 -35 3 -47 -12 -14 -17 -14 -49 0 -35 14 -37 14 -54 -8 -23 -30 -23 -34 7
-64 37 -37 26 -64 -25 -64 -39 0 -50 -11 -50 -50 0 -12 12 -22 35 -30 24 -8
35 -18 35 -31 0 -12 -12 -24 -35 -33 -36 -15 -39 -24 -29 -64 5 -18 13 -22 38
-20 60 4 71 -20 30 -64 -26 -26 -26 -28 -10 -53 14 -21 23 -25 39 -20 12 4 33
8 47 9 21 1 25 -3 22 -24 -1 -14 -4 -63 -6 -110 -3 -47 -7 -101 -10 -120 -3
-19 -8 -57 -11 -85 -3 -27 -8 -66 -10 -85 -3 -19 -11 -91 -20 -159 -9 -77 -20
-130 -30 -141 -38 -42 -49 -132 -25 -204 6 -18 9 -46 6 -62 -3 -16 -8 -54 -11
-84 -3 -30 -8 -66 -10 -80 -2 -14 -7 -50 -10 -80 -4 -30 -9 -70 -11 -87 -6
-48 -10 -85 -25 -205 l-13 -108 -38 -25 c-82 -55 -129 -125 -146 -221 l-9 -51
319 0 318 -1 0 33 c0 48 -26 112 -68 169 -41 56 -40 38 -18 199 3 26 8 68 12
95 11 98 15 128 19 152 2 14 7 52 10 85 3 33 8 71 10 85 2 14 6 46 9 72 4 25
18 66 32 91 30 55 36 107 18 165 -11 39 -10 70 12 246 43 360 45 376 55 376 4
0 9 19 11 42 4 53 27 61 62 23 20 -21 28 -24 43 -16 44 25 44 25 27 66 -17 43
-6 61 31 49 11 -3 30 -7 42 -8 23 -1 23 0 39 -126 2 -19 6 -51 9 -70 3 -19 8
-55 10 -80 2 -25 6 -61 9 -80 10 -89 18 -147 21 -170 2 -14 7 -52 10 -85 3
-33 8 -72 11 -87 3 -14 -1 -48 -9 -75 -18 -63 -13 -115 17 -170 14 -24 28 -63
31 -86 3 -23 10 -73 15 -112 5 -38 12 -97 16 -130 3 -33 8 -67 9 -75 2 -8 6
-44 10 -80 4 -36 8 -72 10 -80 2 -8 6 -42 9 -75 4 -33 8 -69 10 -79 1 -11 -6
-28 -17 -39 -28 -28 -66 -117 -69 -163 l-3 -39 319 -1 318 -2 -6 46 c-13 97
-86 198 -171 239 -31 15 -34 21 -40 72 -4 31 -8 67 -10 81 -2 14 -7 52 -11 85
-3 33 -8 69 -10 80 -2 10 -6 49 -10 85 -3 36 -7 72 -9 80 -1 8 -6 44 -10 80
-4 36 -9 74 -11 84 -2 11 3 41 10 67 18 61 12 123 -19 175 -14 23 -27 60 -30
81 -2 21 -7 56 -10 78 -3 22 -7 60 -10 85 -2 25 -7 63 -10 85 -13 93 -16 112
-20 160 -3 28 -8 68 -11 90 -3 22 -7 51 -9 65 -2 14 -7 52 -10 85 -3 35 -12
65 -20 71 -18 14 -19 31 -2 37 10 4 10 7 0 18 -15 15 -17 33 -3 24 5 -3 23 21
39 54 32 62 51 83 51 57 0 -9 9 -16 20 -16 15 0 20 7 20 25 0 25 14 33 25 15
3 -5 13 -10 22 -10 11 0 14 7 10 26 -4 24 -2 26 24 20 24 -4 29 -2 29 14 0 10
-5 22 -10 25 -16 10 -2 24 19 18 24 -6 36 23 14 35 -18 11 -9 32 13 32 21 0
17 31 -6 37 -25 7 -26 20 -1 28 25 8 16 35 -10 35 -20 0 -26 24 -9 35 18 11
-1 32 -25 27 -21 -4 -24 -1 -22 24 2 29 -3 31 -35 19 -14 -6 -18 -2 -18 19 0
28 -24 36 -34 11 -8 -22 -26 -19 -26 4 0 37 -30 35 -43 -3 -7 -17 -8 -17 -25
5 -21 25 -42 19 -42 -12 0 -20 -15 -26 -25 -9 -3 6 -13 10 -22 10 -11 0 -14
-6 -9 -24 7 -29 -1 -38 -25 -25 -24 12 -38 -14 -19 -36 13 -15 8 -19 -21 -16
-26 3 -31 -27 -7 -43 l21 -15 -26 -10 c-32 -12 -35 -31 -7 -38 20 -5 26 -18
13 -26 -5 -3 -18 -1 -31 4 -17 7 -22 15 -20 36 3 24 -1 28 -22 28 -18 0 -26 6
-28 22 -3 21 -32 42 -32 23 0 -6 -9 -10 -20 -10 -11 0 -20 7 -20 15 0 8 -9 15
-20 15 -11 0 -20 -7 -20 -15 0 -16 -39 -21 -41 -5 -1 6 -2 15 -3 22 0 7 -13
19 -28 27 -24 14 -28 14 -46 -2 -19 -17 -19 -16 -14 52 4 64 2 72 -20 94 -32
32 -22 53 16 36 21 -10 27 -18 23 -37 -3 -18 1 -26 20 -35 24 -11 35 -5 46 28
2 7 14 6 33 0 22 -8 28 -16 26 -33 -2 -12 0 -22 5 -23 4 0 18 -2 29 -5 17 -3
23 3 28 22 6 21 12 25 39 22 18 -2 31 -8 30 -15 -4 -18 21 -33 45 -26 15 3 22
13 22 29 0 17 7 25 26 30 25 6 37 -2 47 -31 2 -6 14 -5 31 3 21 9 25 17 21 35
-5 18 -1 26 21 35 22 11 28 10 39 -4 8 -12 18 -15 31 -10 27 11 116 17 112 8
-2 -4 -10 -19 -17 -34 -11 -22 -11 -30 -2 -42 11 -13 16 -13 42 6 35 26 45 19
31 -21 -10 -27 -8 -32 9 -42 23 -12 22 -12 38 19 12 23 43 31 40 10 -4 -35 3
-56 21 -61 15 -4 22 2 30 29 14 43 27 43 38 2 7 -25 13 -32 28 -30 26 5 27 7
26 42 0 20 4 30 14 30 8 0 14 -3 14 -7 0 -5 7 -16 14 -26 12 -15 18 -16 35 -8
12 7 18 17 14 26 -4 13 -1 14 23 5 62 -24 119 16 129 90 7 55 8 247 1 275 -2
11 -5 23 -5 26 -2 14 -38 47 -58 53 -14 4 -20 12 -16 22 3 8 0 21 -7 29 -10
12 -16 11 -41 -7 -35 -26 -45 -19 -31 21 10 27 8 32 -9 42 -17 8 -24 6 -40
-15 -22 -27 -39 -26 -39 2 0 25 50 64 66 51 16 -13 39 0 39 21 0 9 9 15 23 14
23 -1 26 5 22 44 -1 14 4 22 14 22 24 0 31 22 11 36 -17 12 -17 15 -3 31 18
21 13 43 -8 43 -10 0 -14 9 -12 28 2 18 -2 27 -12 28 -8 1 -21 2 -29 3 -8 1
-11 8 -8 20 3 13 -1 21 -14 24 -11 3 -19 1 -19 -4 0 -5 -9 -9 -20 -9 -11 0
-20 7 -20 15 0 8 -6 15 -14 15 -8 0 -16 -7 -20 -15 -6 -16 -36 -21 -36 -6 0 5
-8 7 -19 4 -10 -2 -18 -12 -17 -21 0 -9 -10 -18 -24 -22 -20 -5 -24 -12 -22
-32 4 -39 -16 -44 -36 -9 -14 26 -22 30 -43 26 -21 -5 -28 -1 -38 21 -10 22
-9 28 6 39 15 11 16 16 4 38 -12 22 -17 24 -38 14 -20 -9 -27 -7 -44 10 -18
17 -19 23 -8 41 10 17 10 23 0 36 -17 20 -28 20 -48 1 -22 -23 -59 3 -55 38 2
18 -4 30 -20 38 -18 10 -24 9 -38 -8 -14 -17 -20 -19 -41 -9 -17 7 -25 19 -25
36 1 34 -49 43 -59 10 -5 -15 -14 -20 -36 -18 -16 1 -30 6 -30 10 -1 4 -3 13
-4 18 -1 6 -3 14 -4 18 -1 9 -15 10 -43 4z m98 -127 c21 -5 21 -5 4 -57 -9
-29 -25 -81 -35 -115 -18 -59 -35 -77 -50 -53 -4 6 3 26 15 45 l21 34 -21 21
-21 21 -34 -21 c-45 -28 -56 -20 -48 35 5 40 3 46 -18 54 -20 8 -28 5 -52 -21
-30 -31 -57 -32 -57 0 0 14 16 24 63 40 84 29 152 34 233 17z m127 -41 c93
-47 183 -143 222 -238 18 -43 17 -44 -16 -52 -32 -7 -47 -10 -164 -38 -96 -22
-100 -22 -103 -4 -2 10 -9 18 -15 17 -30 -4 -67 2 -67 10 0 4 11 24 24 44 14
20 22 44 19 55 -5 19 53 222 63 222 3 0 19 -7 37 -16z m-506 -156 c49 -47 44
-65 -18 -70 -54 -3 -69 4 -69 37 0 25 26 65 43 65 6 0 26 -14 44 -32z m848
-79 c-4 -6 1 -17 11 -24 17 -13 17 -16 4 -25 -25 -16 -38 -11 -48 19 -8 22 -7
31 1 35 22 8 38 6 32 -5z m-1074 -31 c-5 -13 -17 -23 -28 -24 -11 -1 -25 -4
-32 -8 -7 -5 -8 -1 -4 11 11 29 27 42 50 43 19 0 21 -3 14 -22z m451 5 c16
-14 25 -43 13 -43 -5 0 -55 50 -55 55 0 11 25 4 42 -12z m539 -153 c2 -72 -9
-126 -24 -111 -6 6 -17 11 -24 11 -24 0 -234 93 -226 100 4 4 35 13 68 20 33
7 89 21 125 30 36 10 68 15 72 11 4 -3 8 -31 9 -61z m115 48 c-1 -17 5 -22 24
-23 18 0 26 -6 28 -22 2 -13 9 -23 17 -23 16 0 9 -34 -10 -50 -10 -8 -16 -3
-25 25 -7 20 -14 34 -17 32 -2 -3 -16 -2 -30 2 -37 10 -44 57 -11 71 13 5 23
9 24 9 0 1 0 -9 0 -21z m120 -60 c3 -4 -1 -5 -10 -4 -8 1 -18 5 -22 8 -3 4 1
5 10 4 8 -1 18 -5 22 -8z m-777 -125 c-12 -46 -27 -57 -63 -43 -55 21 -52 88
4 107 30 9 38 9 52 -5 15 -14 16 -23 7 -59z m-463 43 c7 -29 -1 -46 -22 -46
-8 0 -14 -6 -14 -12 0 -9 -3 -9 -9 1 -11 17 -6 48 10 67 17 20 28 17 35 -10z
m1099 14 c-3 -5 -10 -10 -16 -10 -5 0 -9 5 -9 10 0 6 7 10 16 10 8 0 12 -4 9
-10z m-212 -96 c-1 -5 -4 -16 -8 -25 -4 -10 3 -20 20 -29 32 -17 27 -34 -11
-38 -16 -2 -32 -8 -35 -13 -3 -5 -40 28 -81 73 -42 46 -79 86 -83 90 -4 4 -5
14 -2 22 5 12 24 7 104 -28 54 -24 97 -47 96 -52z m-218 -21 c35 -38 63 -69
62 -70 -1 -1 -24 4 -50 10 -33 7 -46 15 -42 24 3 7 8 19 11 27 3 8 -7 23 -25
36 -28 19 -41 40 -25 40 4 0 35 -30 69 -67z m-920 -56 c10 -23 10 -35 1 -49
-17 -28 -33 -21 -37 15 -9 77 10 95 36 34z m523 -3 c1 -12 -5 -28 -14 -35 -13
-10 -15 -7 -12 23 2 38 23 48 26 12z m535 -124 c11 -10 -64 -53 -132 -75 -86
-28 -241 -28 -241 0 0 8 7 20 15 28 8 8 12 17 9 20 -4 3 -1 22 6 41 l12 36 28
-20 28 -20 24 28 23 28 110 -29 c61 -16 114 -32 118 -37z m-435 -37 c2 -13 -1
-23 -6 -23 -24 0 -42 14 -42 32 0 29 44 20 48 -9z m552 -3 c0 -13 -49 -44 -57
-36 -9 8 27 46 44 46 7 0 13 -4 13 -10z m-1276 -105 c3 -9 12 -12 23 -9 12 4
10 0 -6 -11 -23 -18 -24 -17 -37 0 -8 10 -14 22 -14 27 0 14 28 9 34 -7z m386
-64 c0 -10 -7 -21 -15 -25 -10 -3 -15 -19 -15 -46 0 -48 -22 -55 -39 -12 -8
20 -9 36 -2 54 16 43 71 65 71 29z m-390 -92 c12 -22 3 -46 -22 -60 -27 -15
-68 13 -63 42 9 45 65 57 85 18z m1210 2 c0 -21 -47 -36 -53 -17 -7 21 5 36
29 36 17 0 24 -6 24 -19z m110 -56 c0 -24 -18 -27 -39 -6 -13 13 -16 22 -8 30
13 13 47 -4 47 -24z m-212 -21 c-13 -28 -36 -32 -45 -8 -7 20 22 45 42 37 11
-4 11 -10 3 -29z m-746 -22 c-7 -2 -10 -7 -7 -11 2 -5 -5 -8 -17 -7 -12 0 -23
7 -26 15 -3 10 2 11 18 6 15 -5 20 -4 16 4 -5 7 -1 8 10 4 11 -4 13 -8 6 -11z
m512 -43 c16 -19 26 -43 26 -62 l0 -32 -49 3 c-62 5 -72 24 -35 63 16 17 24
34 21 43 -10 26 9 18 37 -15z m456 -28 c0 -20 -26 -36 -35 -21 -8 13 6 40 21
40 8 0 14 -9 14 -19z m-1066 -20 c8 -12 -31 -44 -43 -36 -6 3 -11 15 -11 26 0
14 7 19 24 19 14 0 27 -4 30 -9z m474 -13 c-2 -13 -10 -23 -18 -23 -8 0 -16
10 -18 23 -3 17 2 22 18 22 16 0 21 -5 18 -22z m392 9 c0 -8 -7 -14 -15 -14
-11 0 -12 4 -4 14 6 7 13 13 15 13 2 0 4 -6 4 -13z m-111 -6 c2 0 -3 -9 -12
-19 -18 -19 -7 -50 13 -37 14 8 9 -10 -20 -85 -13 -32 -23 -44 -35 -42 -10 2
-19 -5 -22 -18 -3 -12 -12 -19 -22 -18 -9 2 -16 -4 -16 -14 0 -9 -8 -25 -18
-36 -17 -18 -17 -20 -1 -26 25 -10 1 -31 -34 -31 -55 0 -82 63 -28 66 58 3 60
4 67 36 5 24 2 33 -10 38 -10 4 -12 8 -4 13 6 4 12 16 15 27 2 14 11 20 28 20
21 0 25 4 22 28 -2 22 2 30 17 34 22 6 28 27 11 38 -5 3 -10 12 -10 20 0 12
29 15 59 6z m191 -18 c0 -5 -4 -15 -10 -23 -11 -18 -25 -7 -17 15 6 15 27 21
27 8z m-110 -98 c0 -27 18 -33 39 -12 7 6 0 -11 -15 -40 -27 -49 -44 -60 -44
-26 0 11 -7 14 -27 9 -16 -3 -22 -3 -15 0 6 3 9 11 6 16 -5 7 -2 8 6 3 10 -6
12 -2 8 18 -3 15 -1 25 6 24 5 -1 11 4 12 11 3 20 4 22 14 22 6 0 10 -11 10
-25z m-882 -28 c4 -29 -15 -36 -36 -15 -8 8 -8 17 -1 30 14 26 33 18 37 -15z
m547 -17 c3 -5 -1 -10 -10 -10 -9 0 -13 5 -10 10 3 6 8 10 10 10 2 0 7 -4 10
-10z m90 0 c3 -5 -1 -10 -10 -10 -9 0 -13 5 -10 10 3 6 8 10 10 10 2 0 7 -4
10 -10z m298 -55 c-3 -9 -8 -14 -10 -11 -3 3 -2 9 2 15 9 16 15 13 8 -4z
m-902 -56 c8 -15 8 -24 0 -32 -15 -15 -44 14 -35 36 8 23 21 21 35 -4z m487
-6 c3 -22 -18 -36 -37 -23 -10 6 -10 12 1 29 15 25 32 22 36 -6z m-98 -103 c0
-19 -25 -34 -41 -24 -14 8 -11 26 8 40 21 15 33 9 33 -16z"/>
<path d="M3788 3650 c-34 -27 -47 -90 -24 -125 19 -28 42 -42 82 -50 16 -2 40
-7 54 -10 13 -2 42 -7 65 -10 22 -3 49 -9 59 -12 37 -11 109 -11 132 -1 52 24
64 111 20 156 -21 22 -36 27 -106 38 -19 2 -57 9 -85 15 -27 6 -77 12 -110 15
-50 4 -65 1 -87 -16z"/>
<path d="M3717 3432 c-36 -38 -38 -99 -3 -131 13 -12 82 -54 152 -93 110 -59
134 -69 164 -64 46 7 80 46 80 93 0 34 -32 93 -51 93 -5 0 -61 29 -124 65
-134 76 -174 83 -218 37z"/>
<path d="M3614 3285 c-42 -18 -58 -41 -58 -89 -1 -38 8 -53 94 -161 51 -66
101 -124 109 -130 69 -42 163 20 147 97 -5 26 -99 159 -173 246 -35 40 -79 54
-119 37z"/>
<path d="M3407 3145 c-42 -42 -40 -67 18 -225 63 -170 84 -195 149 -187 48 7
86 44 86 86 0 52 -90 294 -122 329 -31 32 -97 31 -131 -3z"/>
<path d="M1141 3129 c-29 -18 -41 -40 -43 -84 -1 -19 80 -247 104 -293 25 -48
90 -61 141 -27 53 34 50 73 -18 258 -33 88 -55 133 -70 143 -35 23 -79 24
-114 3z"/>
<path d="M905 2976 c-33 -14 -55 -52 -55 -93 0 -26 138 -219 194 -272 29 -28
86 -35 115 -15 30 21 52 69 47 100 -5 25 -155 232 -194 267 -26 24 -72 29
-107 13z"/>
<path d="M703 2725 c-38 -16 -55 -45 -55 -92 0 -54 6 -58 225 -177 83 -46 101
-50 142 -30 52 24 72 95 40 141 -16 23 -282 173 -306 173 -8 -1 -28 -7 -46
-15z"/>
<path d="M620 2442 c-52 -17 -81 -82 -60 -133 15 -35 47 -54 110 -64 50 -8 73
-12 110 -20 44 -8 124 -18 143 -17 56 3 99 78 77 132 -7 16 -22 35 -34 43 -19
12 -94 30 -181 42 -16 2 -41 6 -55 9 -47 10 -95 13 -110 8z"/>
<path d="M590 2188 c-67 -25 -89 -88 -53 -149 19 -32 47 -41 143 -45 243 -10
262 -7 286 51 19 46 8 91 -28 116 -25 18 -48 22 -166 25 -75 3 -141 6 -147 8
-5 2 -21 -1 -35 -6z"/>
<path d="M587 1947 c-62 -22 -77 -108 -27 -158 l30 -30 161 3 c182 3 209 11
229 72 15 45 -8 99 -49 116 -32 13 -306 11 -344 -3z"/>
<path d="M577 1706 c-43 -29 -56 -77 -33 -121 28 -51 53 -57 231 -52 l159 5
28 31 c39 43 38 92 -2 132 l-29 30 -161 -2 c-146 -2 -164 -4 -193 -23z"/>
<path d="M677 1486 c-40 -15 -61 -29 -90 -61 -29 -33 -57 -92 -59 -127 l-3
-33 239 -2 238 -1 -5 40 c-8 59 -55 128 -111 162 -57 36 -147 45 -209 22z"/>
</g>
</svg>
